<svg width="144" height="168" viewBox="0 0 144 168" fill="none" xmlns="http://www.w3.org/2000/svg">
<g clip-path="url(#clip0_39_59)">
<path fill-rule="evenodd" clip-rule="evenodd" d="M29.5312 0H114.469C130.711 0 144 15.5039 144 34.4531V133.547C144 152.496 130.711 168 114.469 168H29.5312C13.2891 168 0 152.496 0 133.547V34.4531C0 15.5039 13.2891 0 29.5312 0Z" fill="#0D1117"/>
<path d="M94.8824 79.9247C94.4718 79.695 94.0527 79.4719 93.628 79.2619C92.8911 63.3937 85.4605 54.308 72.9814 54.2161C65.7814 54.1603 59.3352 57.5859 55.3189 64.6964L62.1814 70.1892C65.0361 65.1361 69.5164 64.0598 72.8155 64.0598H72.928C77.0371 64.0894 80.1393 65.4839 82.1446 68.2008C83.6043 70.1827 84.583 72.9159 85.0668 76.3678C81.4218 75.6459 77.4843 75.4228 73.2711 75.705C61.408 76.5023 53.7805 84.5742 54.2924 95.7895C54.5511 101.482 56.9811 106.375 61.1324 109.574C64.6424 112.278 69.1649 113.6 73.8618 113.298C80.0689 112.905 84.9346 110.142 88.3321 105.092C90.9111 101.256 92.5424 96.285 93.2624 90.0244C96.2183 92.1047 98.4093 94.8445 99.6214 98.1389C101.677 103.737 101.798 112.937 95.3633 120.438C89.7271 127.011 82.9489 129.852 72.7086 129.941C61.3461 129.842 52.7539 125.59 47.1683 117.305C41.9371 109.548 39.2343 98.3423 39.133 84C39.2343 69.6577 41.9371 58.4522 47.1683 50.6953C52.7539 42.4102 61.3461 38.1577 72.7086 38.0592C84.1499 38.1577 92.8911 42.4298 98.6933 50.7544C101.537 54.8362 103.68 59.9714 105.095 65.9564L113.136 63.4528C111.423 56.0864 108.728 49.7372 105.058 44.4708C97.6218 33.7969 86.7486 28.3303 72.7368 28.2155H72.6805C58.6968 28.3303 47.9418 33.8198 40.7193 44.5331C34.2899 54.0652 30.9739 67.3313 30.8643 83.9606V84.0394C30.9739 100.669 34.2899 113.935 40.7193 123.467C47.9418 134.18 58.6968 139.673 72.6805 139.785H72.7368C85.168 139.683 93.9318 135.886 101.151 127.47C110.596 116.461 110.312 102.664 107.198 94.1916C104.965 88.118 100.707 83.183 94.8824 79.9247ZM73.4174 103.471C68.2199 103.812 62.8171 101.089 62.5499 95.258C62.353 90.9333 65.188 86.1066 73.738 85.5323C74.7168 85.4667 75.6786 85.4339 76.6208 85.4339C79.7258 85.4339 82.6311 85.785 85.2721 86.4609C84.2877 100.813 78.5108 103.143 73.4174 103.471Z" fill="#EFEBEB"/>
</g>
<defs>
<clipPath id="clip0_39_59">
<rect width="144" height="168" fill="white"/>
</clipPath>
</defs>
</svg>
